<svg width="30" height="30" viewBox="0 0 30 30" fill="none" xmlns="http://www.w3.org/2000/svg">
<path d="M27.5 9.775C27.506 9.69595 27.506 9.61655 27.5 9.5375L25 3.2875C24.9024 3.04045 24.7286 2.83092 24.5038 2.68932C24.279 2.54772 24.015 2.48141 23.75 2.5H6.25C5.99965 2.49976 5.755 2.57469 5.54773 2.7151C5.34046 2.85551 5.18013 3.05492 5.0875 3.2875L2.5875 9.5375C2.58147 9.61655 2.58147 9.69595 2.5875 9.775C2.54596 9.84458 2.51639 9.92064 2.5 10C2.51391 10.8641 2.75153 11.7097 3.18968 12.4546C3.62783 13.1995 4.25155 13.818 5 14.25V26.25C5 26.5815 5.1317 26.8995 5.36612 27.1339C5.60054 27.3683 5.91848 27.5 6.25 27.5H23.75C24.0815 27.5 24.3995 27.3683 24.6339 27.1339C24.8683 26.8995 25 26.5815 25 26.25V14.3C25.7557 13.8637 26.384 13.2373 26.8226 12.4829C27.2612 11.7286 27.4947 10.8726 27.5 10C27.5117 9.92546 27.5117 9.84954 27.5 9.775ZM16.25 25H13.75V20H16.25V25ZM22.5 25H18.75V18.75C18.75 18.4185 18.6183 18.1005 18.3839 17.8661C18.1495 17.6317 17.8315 17.5 17.5 17.5H12.5C12.1685 17.5 11.8505 17.6317 11.6161 17.8661C11.3817 18.1005 11.25 18.4185 11.25 18.75V25H7.5V15C8.21184 14.996 8.91461 14.84 9.56131 14.5425C10.208 14.245 10.7838 13.8129 11.25 13.275C11.7192 13.807 12.2963 14.2331 12.9428 14.525C13.5894 14.8169 14.2906 14.9678 15 14.9678C15.7094 14.9678 16.4106 14.8169 17.0572 14.525C17.7037 14.2331 18.2808 13.807 18.75 13.275C19.2162 13.8129 19.792 14.245 20.4387 14.5425C21.0854 14.84 21.7882 14.996 22.5 15V25ZM22.5 12.5C21.837 12.5 21.2011 12.2366 20.7322 11.7678C20.2634 11.2989 20 10.663 20 10C20 9.66848 19.8683 9.35054 19.6339 9.11612C19.3995 8.8817 19.0815 8.75 18.75 8.75C18.4185 8.75 18.1005 8.8817 17.8661 9.11612C17.6317 9.35054 17.5 9.66848 17.5 10C17.5 10.663 17.2366 11.2989 16.7678 11.7678C16.2989 12.2366 15.663 12.5 15 12.5C14.337 12.5 13.7011 12.2366 13.2322 11.7678C12.7634 11.2989 12.5 10.663 12.5 10C12.5 9.66848 12.3683 9.35054 12.1339 9.11612C11.8995 8.8817 11.5815 8.75 11.25 8.75C10.9185 8.75 10.6005 8.8817 10.3661 9.11612C10.1317 9.35054 10 9.66848 10 10C10.0123 10.3283 9.95984 10.6558 9.84558 10.9638C9.73131 11.2719 9.5575 11.5544 9.33406 11.7952C9.11062 12.0361 8.84192 12.2306 8.54332 12.3676C8.24472 12.5046 7.92205 12.5814 7.59375 12.5938C6.93071 12.6186 6.28495 12.3791 5.79852 11.9278C5.55767 11.7044 5.36319 11.4357 5.22618 11.1371C5.08917 10.8385 5.01231 10.5158 5 10.1875L7.1 5H22.9L25 10.1875C24.9526 10.8175 24.6684 11.4062 24.2046 11.8353C23.7408 12.2643 23.1318 12.5018 22.5 12.5Z" fill="#262626"/>
</svg>
