<svg width="95" height="36" viewBox="0 0 95 36" fill="none" xmlns="http://www.w3.org/2000/svg">
<path d="M0.196 8.748H5.632V27H0.196V8.748ZM5.812 0.179998V5.292H0.0160001V0.179998H5.812ZM19.3989 27.324C17.4549 27.324 15.5829 27.072 13.7829 26.568C12.0069 26.04 10.5309 25.308 9.35491 24.372L11.1549 20.34C13.6269 22.068 16.3869 22.932 19.4349 22.932C21.0669 22.932 22.3149 22.68 23.1789 22.176C24.0669 21.648 24.5109 20.916 24.5109 19.98C24.5109 19.164 24.1029 18.528 23.2869 18.072C22.4949 17.592 21.0909 17.136 19.0749 16.704C16.8189 16.248 15.0189 15.696 13.6749 15.048C12.3549 14.376 11.3829 13.572 10.7589 12.636C10.1589 11.676 9.85891 10.488 9.85891 9.072C9.85891 7.536 10.2789 6.156 11.1189 4.932C11.9829 3.708 13.1829 2.76 14.7189 2.088C16.2549 1.392 18.0309 1.044 20.0469 1.044C21.8709 1.044 23.6229 1.308 25.3029 1.836C26.9829 2.364 28.3269 3.084 29.3349 3.996L27.5349 8.028C25.2789 6.3 22.7949 5.436 20.0829 5.436C18.6429 5.436 17.4909 5.724 16.6269 6.3C15.7629 6.876 15.3309 7.656 15.3309 8.64C15.3309 9.216 15.4869 9.696 15.7989 10.08C16.1349 10.464 16.6869 10.812 17.4549 11.124C18.2229 11.412 19.3149 11.7 20.7309 11.988C24.0189 12.708 26.3829 13.644 27.8229 14.796C29.2869 15.948 30.0189 17.52 30.0189 19.512C30.0189 21.912 29.0829 23.82 27.2109 25.236C25.3389 26.628 22.7349 27.324 19.3989 27.324ZM40.2235 12.816V19.908C40.2235 20.916 40.4875 21.66 41.0155 22.14C41.5435 22.596 42.2275 22.824 43.0675 22.824C43.5955 22.824 44.1955 22.74 44.8675 22.572V26.784C44.0035 27.12 42.9595 27.288 41.7355 27.288C39.4795 27.288 37.7515 26.652 36.5515 25.38C35.3755 24.108 34.7875 22.32 34.7875 20.016V12.816H31.3315V8.748H34.7875V4.464L40.2235 2.7V8.748H44.8675V12.816H40.2235ZM66.0085 8.748L57.5845 27.972C56.5525 30.3 55.2445 32.004 53.6605 33.084C52.1005 34.188 50.1805 34.896 47.9005 35.208L46.6405 31.032C48.3205 30.672 49.5805 30.216 50.4205 29.664C51.2845 29.112 51.9565 28.308 52.4365 27.252L52.9765 26.064L45.4525 8.748H51.1405L55.8205 20.592L60.6445 8.748H66.0085ZM67.8015 0.503998H73.2375V27H67.8015V0.503998ZM94.0604 18.324H82.0364C82.1324 20.028 82.5764 21.276 83.3684 22.068C84.1604 22.836 85.3364 23.22 86.8964 23.22C87.8324 23.22 88.7684 23.064 89.7044 22.752C90.6404 22.44 91.5044 21.984 92.2964 21.384L93.7364 25.056C92.8724 25.752 91.7924 26.304 90.4964 26.712C89.2244 27.096 87.9404 27.288 86.6444 27.288C83.5724 27.288 81.1604 26.448 79.4084 24.768C77.6564 23.064 76.7804 20.748 76.7804 17.82C76.7804 15.972 77.1524 14.328 77.8964 12.888C78.6644 11.424 79.7324 10.296 81.1004 9.504C82.4684 8.688 84.0164 8.28 85.7444 8.28C88.3124 8.28 90.3404 9.12 91.8284 10.8C93.3164 12.456 94.0604 14.7 94.0604 17.532V18.324ZM85.8884 12.096C84.8564 12.096 84.0164 12.396 83.3684 12.996C82.7444 13.596 82.3364 14.472 82.1444 15.624H89.3804C89.0924 13.272 87.9284 12.096 85.8884 12.096Z" fill="#262626"/>
</svg>
